<svg width="18" height="18" viewBox="0 0 18 18" fill="none" xmlns="http://www.w3.org/2000/svg">
<path d="M9 0C7.21997 0 5.47991 0.527841 3.99987 1.51677C2.51983 2.50571 1.36628 3.91131 0.685088 5.55585C0.00389955 7.20038 -0.17433 9.00998 0.172936 10.7558C0.520203 12.5016 1.37737 14.1053 2.63604 15.364C3.89471 16.6226 5.49836 17.4798 7.24419 17.8271C8.99002 18.1743 10.7996 17.9961 12.4442 17.3149C14.0887 16.6337 15.4943 15.4802 16.4832 14.0001C17.4722 12.5201 18 10.78 18 9C18 6.61305 17.0518 4.32387 15.364 2.63604C13.6761 0.948211 11.387 0 9 0ZM5.14286 15.6729V14.3871C5.11463 13.8443 5.30107 13.3121 5.66192 12.9055C6.02277 12.499 6.52906 12.2507 7.07143 12.2143H10.9286C11.4721 12.2507 11.9794 12.4999 12.3404 12.9078C12.7015 13.3158 12.8871 13.8496 12.8571 14.3936V15.6793C11.6861 16.3614 10.3552 16.7208 9 16.7208C7.64481 16.7208 6.31386 16.3614 5.14286 15.6793V15.6729ZM14.1429 14.7343V14.3421C14.1604 13.4657 13.8336 12.6173 13.2327 11.9791C12.6317 11.3409 11.8045 10.9637 10.9286 10.9286H7.07143C6.19495 10.9621 5.36677 11.3388 4.76547 11.9773C4.16418 12.6159 3.83795 13.4652 3.85715 14.3421V14.7214C2.69265 13.6799 1.87185 12.3093 1.50336 10.791C1.13487 9.27276 1.23606 7.6784 1.79353 6.21891C2.35101 4.75942 3.33849 3.50359 4.62532 2.61761C5.91215 1.73163 7.43767 1.25725 9 1.25725C10.5623 1.25725 12.0879 1.73163 13.3747 2.61761C14.6615 3.50359 15.649 4.75942 16.2065 6.21891C16.7639 7.6784 16.8651 9.27276 16.4966 10.791C16.1282 12.3093 15.3074 13.6799 14.1429 14.7214V14.7343Z" fill="#818692"/>
<path d="M9.00042 3.21436C8.36469 3.21436 7.74325 3.40287 7.21466 3.75606C6.68607 4.10925 6.27409 4.61125 6.03081 5.19859C5.78753 5.78592 5.72387 6.43221 5.8479 7.05572C5.97192 7.67923 6.27805 8.25196 6.72758 8.70148C7.1771 9.15101 7.74983 9.45714 8.37334 9.58116C8.99685 9.70519 9.64314 9.64153 10.2305 9.39825C10.8178 9.15497 11.3198 8.74299 11.673 8.2144C12.0262 7.68582 12.2147 7.06437 12.2147 6.42864C12.2147 5.57616 11.8761 4.75859 11.2733 4.1558C10.6705 3.553 9.8529 3.21436 9.00042 3.21436ZM9.00042 8.35721C8.61898 8.35721 8.24611 8.2441 7.92896 8.03219C7.61181 7.82027 7.36462 7.51907 7.21865 7.16667C7.07268 6.81427 7.03449 6.4265 7.10891 6.0524C7.18332 5.67829 7.367 5.33465 7.63671 5.06493C7.90643 4.79522 8.25007 4.61154 8.62417 4.53713C8.99828 4.46271 9.38605 4.5009 9.73845 4.64687C10.0909 4.79284 10.3921 5.04003 10.604 5.35718C10.8159 5.67434 10.929 6.04721 10.929 6.42864C10.929 6.94013 10.7258 7.43067 10.3641 7.79235C10.0024 8.15402 9.51191 8.35721 9.00042 8.35721Z" fill="#818692"/>
</svg>
