<svg width="30" height="30" viewBox="0 0 30 30" fill="none" xmlns="http://www.w3.org/2000/svg">
<path d="M14 1.73242C14.6188 1.37516 15.3812 1.37516 16 1.73242L25.9902 7.5C26.609 7.85727 26.9902 8.51789 26.9902 9.23242V20.7676C26.9902 21.4821 26.609 22.1427 25.9902 22.5L16 28.2676C15.3812 28.6248 14.6188 28.6248 14 28.2676L4.00977 22.5C3.39096 22.1427 3.00977 21.4821 3.00977 20.7676V9.23242C3.00977 8.51789 3.39096 7.85727 4.00977 7.5L14 1.73242Z" stroke="#FFCB03" stroke-width="2"/>
<path d="M12.7445 20.3032L7.51953 15.0782L8.82578 13.7719L12.7445 17.6907L21.1549 9.28027L22.4612 10.5865L12.7445 20.3032Z" fill="#FFCB03"/>
</svg>
