<svg width="16" height="16" viewBox="0 0 16 16" fill="none" xmlns="http://www.w3.org/2000/svg">
<path d="M14.7493 7.91641C14.6944 7.91673 14.6401 7.90622 14.5893 7.88548C14.5386 7.86475 14.4924 7.8342 14.4534 7.79558L8.49928 1.83724L2.54511 7.79558C2.4654 7.86384 2.36287 7.89951 2.25801 7.89546C2.15314 7.89141 2.05367 7.84794 1.97946 7.77373C1.90525 7.69952 1.86178 7.60005 1.85773 7.49518C1.85368 7.39032 1.88935 7.28779 1.95761 7.20808L8.20761 0.958078C8.28568 0.880473 8.39128 0.836914 8.50136 0.836914C8.61144 0.836914 8.71704 0.880473 8.79511 0.958078L15.0451 7.20808C15.1024 7.26657 15.1413 7.34067 15.1567 7.4211C15.1722 7.50154 15.1636 7.58475 15.132 7.66033C15.1005 7.73591 15.0473 7.80051 14.9793 7.84605C14.9112 7.8916 14.8312 7.91607 14.7493 7.91641Z" fill="white"/>
<path d="M8.5 3.24609L3.5 8.26276V13.3336C3.5 13.5546 3.5878 13.7666 3.74408 13.9228C3.90036 14.0791 4.11232 14.1669 4.33333 14.1669H7.25V10.0003H9.75V14.1669H12.6667C12.8877 14.1669 13.0996 14.0791 13.2559 13.9228C13.4122 13.7666 13.5 13.5546 13.5 13.3336V8.23359L8.5 3.24609Z" fill="white"/>
</svg>
