<svg width="16" height="16" viewBox="0 0 16 16" fill="none" xmlns="http://www.w3.org/2000/svg">
<path d="M3.625 3.11367C3.625 2.91406 3.78633 2.75 3.98867 2.75C4.08438 2.75 4.17734 2.78828 4.2457 2.85664L4.65313 3.26406C4.55469 3.51016 4.5 3.78086 4.5 4.0625C4.5 4.60664 4.69687 5.10156 5.025 5.48438C4.88008 5.73594 4.91563 6.06133 5.12891 6.27734C5.38594 6.53438 5.80156 6.53438 6.05586 6.27734L8.90234 3.43359C9.15938 3.17656 9.15938 2.76094 8.90234 2.50664C8.68633 2.29062 8.36094 2.25781 8.10938 2.40273C7.72656 2.07187 7.23164 1.875 6.6875 1.875C6.40586 1.875 6.13516 1.92969 5.88906 2.02539L5.48164 1.61797C5.08516 1.22148 4.54648 1 3.98867 1C2.82109 1 1.875 1.94609 1.875 3.11367V8C1.39102 8 1 8.39102 1 8.875C1 9.35898 1.39102 9.75 1.875 9.75H14.125C14.609 9.75 15 9.35898 15 8.875C15 8.39102 14.609 8 14.125 8H3.625V3.11367ZM1.875 10.625V11.0625C1.875 11.8391 2.21406 12.5391 2.75 13.0203V14.125C2.75 14.609 3.14102 15 3.625 15C4.10898 15 4.5 14.609 4.5 14.125V13.6875H11.5V14.125C11.5 14.609 11.891 15 12.375 15C12.859 15 13.25 14.609 13.25 14.125V13.0203C13.7859 12.5391 14.125 11.8418 14.125 11.0625V10.625H1.875Z" fill="white"/>
</svg>
