<svg width="16" height="16" viewBox="0 0 16 16" fill="none" xmlns="http://www.w3.org/2000/svg">
<path fill-rule="evenodd" clip-rule="evenodd" d="M3.17188 2.03626C2.76193 2.12382 2.36026 2.43777 2.1688 2.82031C2.00021 3.15716 2.00087 3.14912 2.0004 4.92383L2 6.5H2.7492H3.49838L3.50506 5.28711L3.51172 4.07422L3.57313 3.9433C3.65117 3.77687 3.77687 3.65117 3.9433 3.57313L4.07422 3.51172L5.28711 3.50506L9.5 3.49838V2.7492V2L4.91211 2.00185C3.65192 2.00335 3.29279 2.01043 3.17188 2.03626ZM9.5 2.7492V3.49838L10.7129 3.50506L11.9258 3.51172L12.0567 3.57313C12.2231 3.65117 12.3488 3.77687 12.4269 3.9433L12.4883 4.07422L12.4949 5.28711L12.5016 6.5H13.2508H14L13.9996 4.92383C13.9991 3.14912 13.9998 3.15716 13.8312 2.82031C13.6932 2.54464 13.4554 2.30677 13.1797 2.1688C12.8428 2.00021 12.8509 2.00087 11.0762 2.0004L9.5 2V2.7492ZM2.0004 11.0762C2.00087 12.8509 2.00021 12.8428 2.1688 13.1797C2.30677 13.4554 2.54464 13.6932 2.82031 13.8312C3.15716 13.9998 3.14912 13.9991 4.92383 13.9996L9.5 14V13.2508V12.5016L5.28711 12.4949L4.07422 12.4883L3.9433 12.4269C3.77687 12.3488 3.65117 12.2231 3.57313 12.0567L3.51172 11.9258L3.50506 10.7129L3.49838 6.5H2.7492H2L2.0004 11.0762ZM12.4949 10.7129L12.4883 11.9258L12.4269 12.0567C12.3488 12.2231 12.2231 12.3488 12.0567 12.4269L11.9258 12.4883L10.7129 12.4949L9.5 12.5016V13.2508V14L11.0762 13.9996C12.8509 13.9991 12.8428 13.9998 13.1797 13.8312C13.4554 13.6932 13.6932 13.4554 13.8312 13.1797C13.9998 12.8428 13.9991 12.8509 13.9996 11.0762L14 6.5H13.2508H12.5016L12.4949 10.7129Z" fill="white"/>
<rect x="11" y="11" width="4" height="4" fill="white"/>
<rect x="1" y="11" width="4" height="4" fill="white"/>
<rect x="11" y="1" width="4" height="4" fill="white"/>
<rect x="1" y="1" width="4" height="4" fill="white"/>
</svg>
