<svg width="17" height="10" viewBox="0 0 17 10" fill="none" xmlns="http://www.w3.org/2000/svg">
<path fill-rule="evenodd" clip-rule="evenodd" d="M5.5 4.99993C5.5 4.60544 5.8198 4.28564 6.21429 4.28564H10.5C10.8945 4.28564 11.2143 4.60544 11.2143 4.99993C11.2143 5.39442 10.8945 5.71422 10.5 5.71422H6.21429C5.8198 5.71422 5.5 5.39442 5.5 4.99993Z" fill="#818692"/>
<path fill-rule="evenodd" clip-rule="evenodd" d="M9.78613 0.714286C9.78613 0.319797 10.1059 0 10.5004 0H11.2147C12.5408 0 13.8126 0.526784 14.7502 1.46447C15.6879 2.40215 16.2147 3.67392 16.2147 5C16.2147 6.32608 15.6879 7.59785 14.7502 8.53553C13.8126 9.47322 12.5408 10 11.2147 10H10.5004C10.1059 10 9.78613 9.6802 9.78613 9.28571C9.78613 8.89122 10.1059 8.57143 10.5004 8.57143H11.2147C12.1619 8.57143 13.0703 8.19515 13.7401 7.52538C14.4099 6.85561 14.7861 5.9472 14.7861 5C14.7861 4.0528 14.4099 3.14439 13.7401 2.47462C13.0703 1.80485 12.1619 1.42857 11.2147 1.42857H10.5004C10.1059 1.42857 9.78613 1.10877 9.78613 0.714286Z" fill="#818692"/>
<path fill-rule="evenodd" clip-rule="evenodd" d="M5.5 1.42857C4.5528 1.42857 3.64439 1.80485 2.97462 2.47462C2.30485 3.14439 1.92857 4.0528 1.92857 5C1.92857 5.9472 2.30485 6.85561 2.97462 7.52538C3.64439 8.19515 4.5528 8.57143 5.5 8.57143H6.21428C6.60877 8.57143 6.92857 8.89122 6.92857 9.28571C6.92857 9.6802 6.60877 10 6.21428 10H5.5C4.17392 10 2.90215 9.47322 1.96447 8.53553C1.02678 7.59785 0.5 6.32608 0.5 5C0.5 3.67392 1.02678 2.40215 1.96447 1.46447C2.90215 0.526784 4.17392 0 5.5 0H6.21428C6.60877 0 6.92857 0.319797 6.92857 0.714286C6.92857 1.10877 6.60877 1.42857 6.21428 1.42857H5.5Z" fill="#818692"/>
</svg>
